<svg width="228" height="455" viewBox="0 0 228 455" fill="none" xmlns="http://www.w3.org/2000/svg">
<path d="M227.578 0C197.74 -3.55814e-07 168.194 5.87703 140.627 17.2955C113.061 28.714 88.013 45.4504 66.9144 66.549C45.8157 87.6477 29.0794 112.695 17.6609 140.262C6.24238 167.829 0.365355 197.375 0.365356 227.213C0.365357 257.051 6.24239 286.596 17.6609 314.163C29.0794 341.73 45.8158 366.778 66.9144 387.876C88.013 408.975 113.061 425.711 140.627 437.13C168.194 448.548 197.74 454.425 227.578 454.425V440.634C199.551 440.634 171.799 435.114 145.905 424.388C120.012 413.663 96.4841 397.942 76.6661 378.124C56.8481 358.306 41.1275 334.779 30.4021 308.885C19.6767 282.992 14.1563 255.24 14.1563 227.213C14.1563 199.186 19.6767 171.433 30.4021 145.54C41.1275 119.646 56.8481 96.1188 76.6661 76.3007C96.4841 56.4827 120.012 40.7622 145.905 30.0367C171.799 19.3113 199.551 13.791 227.578 13.791V0Z" fill="#F13BFA"/>
</svg>
